<svg width="350" height="266" viewBox="0 0 350 266" fill="none" xmlns="http://www.w3.org/2000/svg">
<path d="M64.5796 107.965C64.7023 107.771 64.8266 107.573 64.9521 107.373C64.4564 107.357 63.9496 107.342 63.4331 107.329C63.8272 107.549 64.21 107.761 64.5796 107.965ZM38.6281 107.277C39.0338 106.631 39.476 105.96 39.9583 105.312C38.9206 104.99 37.9045 104.62 36.8103 104.201L36.7703 104.186L36.7305 104.17C29.2823 101.209 23.7017 97.8474 18.1697 92.9073L18.1594 92.898L18.1491 92.8887C15.5226 90.5245 12.9695 87.5054 11.1379 84.8957C10.2297 83.6016 9.35139 82.1998 8.72254 80.8725C8.42071 80.2355 8.04399 79.3424 7.81784 78.3275C7.68528 77.7326 7.10033 75.1017 8.71516 72.4772L8.78184 72.3688L8.8524 72.263C9.92773 70.6497 11.3541 69.9603 11.6901 69.7978L11.6958 69.795C12.2374 69.5332 12.7088 69.3881 12.9621 69.3162C13.49 69.1662 13.9794 69.0838 14.2858 69.0375C14.9482 68.9372 15.7244 68.8656 16.5078 68.8086C18.1192 68.6915 20.354 68.5959 23.103 68.5191C26.4899 68.4244 30.7775 68.3551 35.8627 68.3157C34.9776 67.8868 34.0664 67.4279 33.1051 66.9387L33.0933 66.9328L33.0816 66.9268C28.8315 64.7439 23.7653 60.3223 19.9862 56.4068C18.0249 54.3748 16.1723 52.2336 14.7563 50.2601C14.0541 49.2814 13.362 48.2098 12.8164 47.118C12.3707 46.2259 11.5811 44.48 11.5811 42.3911C11.5811 39.6343 13.104 37.8658 13.95 37.1093C14.7833 36.3641 15.6021 35.9866 15.9703 35.8292C16.7557 35.4935 17.4777 35.3439 17.808 35.2796C18.5883 35.1278 19.4801 35.0368 20.3092 34.971C22.0505 34.8329 24.5453 34.732 27.7515 34.6555C34.2086 34.5015 44.0424 34.4366 57.622 34.4366H89.6629V27.987V14.5373V7.53729H96.6629H116.444C127.243 7.53729 139.221 7.96262 143.037 8.46487L143.083 8.47086L143.128 8.47743C176.279 13.2827 200.635 38.6617 205.108 72.3608L205.11 72.3732C207.053 87.21 203.904 101.792 196.012 116.597C196.066 116.592 196.119 116.586 196.172 116.581C197.061 115.094 198.3 112.999 199.8 110.444C202.816 105.309 206.864 98.3596 211.195 90.8649C215.54 83.3478 219.604 76.3707 222.649 71.1814C224.171 68.5882 225.444 66.4325 226.373 64.8758C226.836 64.0996 227.222 63.4577 227.514 62.9793L227.545 62.9285C227.738 62.6128 228.101 62.019 228.4 61.6201L228.537 61.4376L228.685 61.2645C229.933 59.8086 231.432 59.1936 232.019 58.9699C232.785 58.678 233.531 58.5042 234.117 58.392C235.307 58.1646 236.646 58.0438 237.946 57.9762C240.594 57.8385 243.894 57.8837 247.297 58.0587C253.982 58.4024 262.031 59.2984 267.231 60.7103C301.956 70.0491 328.91 97.1033 339.107 132.337L339.112 132.353L339.117 132.369L341.459 140.613L341.719 141.529L341.725 142.481L342.073 196.887L342.073 196.899L342.333 251.391L342.366 258.425H335.333H323.36H311.388H307.35L305.328 254.929L294.146 235.595C294.143 235.591 294.141 235.586 294.138 235.582C292.581 232.905 291.004 230.186 289.49 227.566L289.324 251.473L289.276 258.425H282.324H270.352H258.466H254.374L252.366 254.859L247.334 245.921L247.322 245.899L247.309 245.877C244.871 241.471 239.003 231.226 233.813 222.164C233.351 221.356 232.893 220.557 232.444 219.772C229.697 215.02 227.185 210.585 225.352 207.28C224.437 205.632 223.677 204.237 223.137 203.216C222.871 202.713 222.632 202.25 222.448 201.873C222.361 201.695 222.247 201.456 222.141 201.207C222.092 201.09 222.002 200.872 221.912 200.605C221.867 200.472 221.795 200.245 221.727 199.961C221.679 199.756 221.534 199.131 221.534 198.32C221.534 195.71 222.918 194.007 223.674 193.275C224.431 192.542 225.176 192.154 225.504 191.994C226.2 191.655 226.804 191.505 226.997 191.458C227.494 191.336 227.953 191.274 228.193 191.245C228.754 191.175 229.433 191.122 230.12 191.079C231.541 190.99 233.515 190.912 235.864 190.846C240.585 190.713 247.051 190.626 254.128 190.626C254.846 190.626 255.557 190.625 256.26 190.623C254.871 190.18 253.518 189.835 252.112 189.562C248.466 188.855 244.178 188.573 237.644 188.573C231.117 188.573 226.574 188.954 222.635 189.836C218.762 190.703 215.176 192.12 210.658 194.519C206.988 196.482 205.069 197.82 202.083 201.79C198.692 206.299 194.273 213.784 186.033 228.25L186.032 228.252L170.849 254.891L168.835 258.425H164.768H152.882H140.909H133.909V251.425V226.855C133.055 228.351 132.181 229.889 131.294 231.451L131.288 231.462L131.281 231.474L117.921 254.815L115.921 258.308L111.897 258.338L100.011 258.425L99.9853 258.425H99.9597H87.9872H80.9872V251.425V224.525V197.626V190.626H87.9872H114.448H133.909V189.383V188.14H103.343C83.4961 188.14 72.3834 188.081 65.2486 187.463C61.5817 187.145 58.6959 186.661 56.0453 185.871C53.382 185.078 51.2203 184.052 49.0592 182.948L49.0429 182.94L49.0267 182.931C45.6228 181.171 41.796 178.047 38.6276 174.959C35.4691 171.881 32.2093 168.104 30.3662 164.655L30.3632 164.649C27.1372 158.599 24.5948 149.58 24.5948 142.96C24.5948 134.379 27.7247 125.983 33.7881 115.574L33.7927 115.566C34.5068 114.344 35.1806 113.169 35.8084 112.075C36.8963 110.178 37.8461 108.522 38.6281 107.277ZM21.3392 74.7993C21.339 74.7992 21.3423 74.8079 21.3502 74.8257C21.3434 74.8083 21.3395 74.7994 21.3392 74.7993ZM194.821 118.797C194.823 118.794 194.837 118.773 194.864 118.731C194.833 118.777 194.817 118.802 194.821 118.797ZM229.895 205.141C229.896 205.141 229.906 205.14 229.924 205.137C229.924 205.137 229.923 205.137 229.923 205.137C229.903 205.14 229.895 205.141 229.895 205.141ZM61.8028 112.117C61.8027 112.117 61.8065 112.113 61.8146 112.102C61.807 112.112 61.803 112.117 61.8028 112.117ZM25.2898 40.7475C25.2875 40.7466 25.2997 40.7784 25.3329 40.8459C25.3087 40.7823 25.2921 40.7485 25.2898 40.7475ZM119.548 105.054C121.656 109.094 126.156 109.743 128.42 108.252C131.147 106.398 132.128 104.117 132.189 102.262C132.247 100.467 131.473 98.315 129.116 96.4861C129.098 96.4773 129.076 96.467 129.051 96.4555C128.868 96.3726 128.596 96.2649 128.248 96.1512C127.526 95.9153 126.762 95.7457 126.194 95.6775C120.865 95.0379 117.187 100.376 119.548 105.054Z" stroke="white" stroke-width="14"/>
</svg>
